{
  "accessors": [
    {
      "bufferView": 2,
      "componentType": 5126,
      "count": 65532,
      "max": [
        0.49474233388900757,
        0.4767419695854187,
        0.01028259377926588
      ],
      "min": [
        -0.49474233388900757,
        -0.5073919892311096,
        -0.006613539066165686
      ],
      "type": "VEC3"
    },
    {
      "bufferView": 2,
      "byteOffset": 786384,
      "componentType": 5126,
      "count": 65532,
      "max": [
        0.8412607908248901,
        0.9250222444534302,
        1.0
      ],
      "min": [
        -0.9263467192649841,
        -0.9463582038879395,
        -0.23878270387649536
      ],
      "type": "VEC3"
    },
    {
      "bufferView": 1,
      "componentType": 5126,
      "count": 65532,
      "max": [
        0.9944939017295837,
        0.9999002814292908
      ],
      "min": [
        9.97093811747618e-05,
        9.97093811747618e-05
      ],
      "type": "VEC2"
    },
    {
      "bufferView": 0,
      "componentType": 5125,
      "count": 338046,
      "type": "SCALAR"
    },
    {
      "bufferView": 2,
      "byteOffset": 1572768,
      "componentType": 5126,
      "count": 60158,
      "max": [
        0.4947148263454437,
        0.47631338238716125,
        0.009560133330523968
      ],
      "min": [
        -0.4943934381008148,
        -0.5073918700218201,
        -0.0071845040656626225
      ],
      "type": "VEC3"
    },
    {
      "bufferView": 2,
      "byteOffset": 2294664,
      "componentType": 5126,
      "count": 60158,
      "max": [
        0.8950042724609375,
        0.9250222444534302,
        0.9999997615814209
      ],
      "min": [
        -0.9886011481285095,
        -0.9865900874137878,
        -0.23878270387649536
      ],
      "type": "VEC3"
    },
    {
      "bufferView": 1,
      "byteOffset": 524256,
      "componentType": 5126,
      "count": 60158,
      "max": [
        0.9944937229156494,
        0.9998725652694702
      ],
      "min": [
        0.0005328722763806581,
        0.00045224244240671396
      ],
      "type": "VEC2"
    },
    {
      "bufferView": 0,
      "byteOffset": 1352184,
      "componentType": 5125,
      "count": 295548,
      "type": "SCALAR"
    },
    {
      "bufferView": 2,
      "byteOffset": 3016560,
      "componentType": 5126,
      "count": 5,
      "max": [
        0.4947423040866852,
        0.4767419099807739,
        8.940696716308594e-08
      ],
      "min": [
        -0.49474233388900757,
        -0.5073919296264648,
        0.0
      ],
      "type": "VEC3"
    },
    {
      "bufferView": 2,
      "byteOffset": 3016620,
      "componentType": 5126,
      "count": 5,
      "max": [
        3.648354709973826e-15,
        -4.5424197736565475e-08,
        1.0
      ],
      "min": [
        3.648354709973826e-15,
        -4.5424197736565475e-08,
        1.0
      ],
      "type": "VEC3"
    },
    {
      "bufferView": 3,
      "componentType": 5126,
      "count": 5,
      "max": [
        1.0,
        -1.1140058830960697e-07,
        -8.708637957088265e-15,
        1.0
      ],
      "min": [
        3.0681508889074394e-08,
        -1.0,
        -4.5424201289279154e-08,
        1.0
      ],
      "type": "VEC4"
    },
    {
      "bufferView": 1,
      "byteOffset": 1005520,
      "componentType": 5126,
      "count": 5,
      "max": [
        1.9997034072875977,
        1.954957365989685
      ],
      "min": [
        -0.9997034072875977,
        -0.9773304462432861
      ],
      "type": "VEC2"
    },
    {
      "bufferView": 0,
      "byteOffset": 2534376,
      "componentType": 5125,
      "count": 9,
      "type": "SCALAR"
    }
  ],
  "asset": {
    "extras": {
      "author": "Loïc Norgeot (https://sketchfab.com/norgeotloic)",
      "license": "CC-BY-4.0 (http://creativecommons.org/licenses/by/4.0/)",
      "source": "https://sketchfab.com/3d-models/wip-intertidal-environment-30999a9d2e1e4d06acd0e310170807ff",
      "title": "WIP - Intertidal environment"
    },
    "generator": "Sketchfab-12.63.0",
    "version": "2.0"
  },
  "bufferViews": [
    {
      "buffer": 0,
      "byteLength": 2534412,
      "name": "floatBufferViews",
      "target": 34963
    },
    {
      "buffer": 0,
      "byteLength": 1005560,
      "byteOffset": 2534412,
      "byteStride": 8,
      "name": "floatBufferViews",
      "target": 34962
    },
    {
      "buffer": 0,
      "byteLength": 3016680,
      "byteOffset": 3539972,
      "byteStride": 12,
      "name": "floatBufferViews",
      "target": 34962
    },
    {
      "buffer": 0,
      "byteLength": 80,
      "byteOffset": 6556652,
      "byteStride": 16,
      "name": "floatBufferViews",
      "target": 34962
    }
  ],
  "buffers": [
    {
      "byteLength": 6556732,
      "uri": "scene.bin"
    }
  ],
  "extensionsUsed": [
    "KHR_materials_clearcoat",
    "KHR_materials_transmission"
  ],
  "images": [
    {
      "uri": "textures/water__0_normal.png"
    },
    {
      "uri": "textures/sandexport_baked_material_baseColor.jpeg"
    },
    {
      "uri": "textures/sandexport_baked_material_metallicRoughness.png"
    }
  ],
  "materials": [
    {
      "alphaMode": "BLEND",
      "doubleSided": true,
      "extensions": {
        "KHR_materials_clearcoat": {
          "clearcoatFactor": 1.0,
          "clearcoatNormalTexture": {
            "index": 0
          },
          "clearcoatRoughnessFactor": 0.0748856707
        },
        "KHR_materials_transmission": {
          "transmissionFactor": 0.9738948171
        }
      },
      "name": "water__0",
      "normalTexture": {
        "index": 0
      },
      "pbrMetallicRoughness": {
        "baseColorFactor": [
          1.0,
          1.0,
          1.0,
          0.25
        ],
        "metallicFactor": 0.0,
        "roughnessFactor": 0.3370807927
      }
    },
    {
      "doubleSided": true,
      "name": "sandexport_baked_material",
      "pbrMetallicRoughness": {
        "baseColorTexture": {
          "index": 1
        },
        "metallicFactor": 0.0,
        "metallicRoughnessTexture": {
          "index": 2
        }
      }
    }
  ],
  "meshes": [
    {
      "name": "sand_export_sandexport_baked_material_0",
      "primitives": [
        {
          "attributes": {
            "NORMAL": 1,
            "POSITION": 0,
            "TEXCOORD_0": 2
          },
          "indices": 3,
          "material": 1,
          "mode": 4
        }
      ]
    },
    {
      "name": "sand_export_sandexport_baked_material_0",
      "primitives": [
        {
          "attributes": {
            "NORMAL": 5,
            "POSITION": 4,
            "TEXCOORD_0": 6
          },
          "indices": 7,
          "material": 1,
          "mode": 4
        }
      ]
    },
    {
      "name": "water__0",
      "primitives": [
        {
          "attributes": {
            "NORMAL": 9,
            "POSITION": 8,
            "TANGENT": 10,
            "TEXCOORD_0": 11
          },
          "indices": 12,
          "material": 0,
          "mode": 4
        }
      ]
    }
  ],
  "nodes": [
    {
      "children": [
        1
      ],
      "matrix": [
        1.0,
        0.0,
        0.0,
        0.0,
        0.0,
        2.220446049250313e-16,
        -1.0,
        0.0,
        0.0,
        1.0,
        2.220446049250313e-16,
        0.0,
        0.0,
        0.0,
        0.0,
        1.0
      ],
      "name": "Sketchfab_model"
    },
    {
      "children": [
        2
      ],
      "matrix": [
        1.0,
        0.0,
        0.0,
        0.0,
        0.0,
        0.0,
        1.0,
        0.0,
        0.0,
        -1.0,
        0.0,
        0.0,
        0.0,
        0.0,
        0.0,
        1.0
      ],
      "name": "13017801932e4a22b82ab7e3fb58f324.fbx"
    },
    {
      "children": [
        3,
        6
      ],
      "name": "RootNode"
    },
    {
      "children": [
        4,
        5
      ],
      "matrix": [
        100.0,
        0.0,
        0.0,
        0.0,
        0.0,
        -4.371139006309477e-06,
        -99.9999999999999,
        0.0,
        0.0,
        99.9999999999999,
        -4.371139006309477e-06,
        0.0,
        0.0,
        0.0,
        0.0,
        1.0
      ],
      "name": "sand_export"
    },
    {
      "mesh": 0,
      "name": "sand_export_sandexport_baked_material_0"
    },
    {
      "mesh": 1,
      "name": "sand_export_sandexport_baked_material_0"
    },
    {
      "children": [
        7
      ],
      "matrix": [
        100.0,
        0.0,
        0.0,
        0.0,
        0.0,
        -4.371139006309477e-06,
        -99.9999999999999,
        0.0,
        0.0,
        99.9999999999999,
        -4.371139006309477e-06,
        0.0,
        0.0,
        -0.05937889218330383,
        0.0,
        1.0
      ],
      "name": "water"
    },
    {
      "mesh": 2,
      "name": "water__0"
    }
  ],
  "samplers": [
    {
      "magFilter": 9729,
      "minFilter": 9987,
      "wrapS": 33648,
      "wrapT": 10497
    },
    {
      "magFilter": 9729,
      "minFilter": 9987,
      "wrapS": 10497,
      "wrapT": 10497
    }
  ],
  "scene": 0,
  "scenes": [
    {
      "name": "Sketchfab_Scene",
      "nodes": [
        0
      ]
    }
  ],
  "textures": [
    {
      "sampler": 0,
      "source": 0
    },
    {
      "sampler": 1,
      "source": 1
    },
    {
      "sampler": 1,
      "source": 2
    }
  ]
}
